<mxfile host="app.diagrams.net" agent="Mozilla/5.0 (Windows NT 10.0; Win64; x64) AppleWebKit/537.36 (KHTML, like Gecko) Chrome/135.0.0.0 Safari/537.36" version="26.2.12">
  <diagram name="Page-1" id="mq7fQ1CK_3qVFV9kERIX">
    <mxGraphModel dx="1044" dy="562" grid="1" gridSize="10" guides="1" tooltips="1" connect="1" arrows="1" fold="1" page="1" pageScale="1" pageWidth="850" pageHeight="1100" math="0" shadow="0">
      <root>
        <mxCell id="0" />
        <mxCell id="1" parent="0" />
        <mxCell id="OEgcK3_PQhUomUO8Ab9i-2" value="&lt;div style=&quot;color: rgb(204, 204, 204); background-color: rgb(31, 31, 31); font-family: Consolas, &amp;quot;Courier New&amp;quot;, monospace; font-weight: normal; line-height: 19px; white-space: pre;&quot;&gt;&lt;div&gt;&lt;span style=&quot;color: #6a9955;&quot;&gt;// Print 1 2 3 4 5 6 7 8&lt;/span&gt;&lt;/div&gt;&lt;br&gt;&lt;div&gt;&lt;span style=&quot;color: #6a9955;&quot;&gt;// Step 1: Start&lt;/span&gt;&lt;/div&gt;&lt;div&gt;&lt;span style=&quot;color: #6a9955;&quot;&gt;// Step 2: Intialize variable i by 1&lt;/span&gt;&lt;/div&gt;&lt;div&gt;&lt;span style=&quot;color: #6a9955;&quot;&gt;// Step 3: Print i&lt;/span&gt;&lt;/div&gt;&lt;div&gt;&lt;span style=&quot;color: #6a9955;&quot;&gt;// Step 4: Increment i by 1&lt;/span&gt;&lt;/div&gt;&lt;div&gt;&lt;span style=&quot;color: #6a9955;&quot;&gt;// Step 5: Check the condition if (i &amp;lt;= 8) &lt;/span&gt;&lt;/div&gt;&lt;div&gt;&lt;span style=&quot;color: #6a9955;&quot;&gt;// Step 6: If the condition is true, go to step 3 otherwise go to step 7&lt;/span&gt;&lt;/div&gt;&lt;div&gt;&lt;span style=&quot;color: #6a9955;&quot;&gt;// Step 7: End&lt;/span&gt;&lt;/div&gt;&lt;/div&gt;" style="text;whiteSpace=wrap;html=1;fontSize=14;" vertex="1" parent="1">
          <mxGeometry x="40" y="40" width="560" height="190" as="geometry" />
        </mxCell>
        <mxCell id="OEgcK3_PQhUomUO8Ab9i-6" value="" style="edgeStyle=orthogonalEdgeStyle;rounded=0;orthogonalLoop=1;jettySize=auto;html=1;fontSize=14;" edge="1" parent="1" source="OEgcK3_PQhUomUO8Ab9i-3" target="OEgcK3_PQhUomUO8Ab9i-5">
          <mxGeometry relative="1" as="geometry" />
        </mxCell>
        <mxCell id="OEgcK3_PQhUomUO8Ab9i-3" value="Start" style="strokeWidth=2;html=1;shape=mxgraph.flowchart.start_1;whiteSpace=wrap;fontSize=14;" vertex="1" parent="1">
          <mxGeometry x="375" y="300" width="100" height="60" as="geometry" />
        </mxCell>
        <mxCell id="OEgcK3_PQhUomUO8Ab9i-4" value="End" style="strokeWidth=2;html=1;shape=mxgraph.flowchart.start_1;whiteSpace=wrap;fontSize=14;" vertex="1" parent="1">
          <mxGeometry x="375" y="940" width="100" height="60" as="geometry" />
        </mxCell>
        <mxCell id="OEgcK3_PQhUomUO8Ab9i-8" value="" style="edgeStyle=orthogonalEdgeStyle;rounded=0;orthogonalLoop=1;jettySize=auto;html=1;fontSize=14;" edge="1" parent="1" source="OEgcK3_PQhUomUO8Ab9i-5" target="OEgcK3_PQhUomUO8Ab9i-7">
          <mxGeometry relative="1" as="geometry" />
        </mxCell>
        <mxCell id="OEgcK3_PQhUomUO8Ab9i-5" value="int i = 1" style="whiteSpace=wrap;html=1;strokeWidth=2;fontSize=14;" vertex="1" parent="1">
          <mxGeometry x="365" y="400" width="120" height="60" as="geometry" />
        </mxCell>
        <mxCell id="OEgcK3_PQhUomUO8Ab9i-10" value="" style="edgeStyle=orthogonalEdgeStyle;rounded=0;orthogonalLoop=1;jettySize=auto;html=1;fontSize=14;" edge="1" parent="1" source="OEgcK3_PQhUomUO8Ab9i-7" target="OEgcK3_PQhUomUO8Ab9i-9">
          <mxGeometry relative="1" as="geometry" />
        </mxCell>
        <mxCell id="OEgcK3_PQhUomUO8Ab9i-7" value="Print i" style="shape=parallelogram;perimeter=parallelogramPerimeter;whiteSpace=wrap;html=1;fixedSize=1;strokeWidth=2;fontSize=14;" vertex="1" parent="1">
          <mxGeometry x="365" y="490" width="120" height="60" as="geometry" />
        </mxCell>
        <mxCell id="OEgcK3_PQhUomUO8Ab9i-12" value="" style="edgeStyle=orthogonalEdgeStyle;rounded=0;orthogonalLoop=1;jettySize=auto;html=1;fontSize=14;" edge="1" parent="1" source="OEgcK3_PQhUomUO8Ab9i-9" target="OEgcK3_PQhUomUO8Ab9i-11">
          <mxGeometry relative="1" as="geometry" />
        </mxCell>
        <mxCell id="OEgcK3_PQhUomUO8Ab9i-9" value="i++" style="whiteSpace=wrap;html=1;strokeWidth=2;fontSize=14;" vertex="1" parent="1">
          <mxGeometry x="365" y="590" width="120" height="60" as="geometry" />
        </mxCell>
        <mxCell id="OEgcK3_PQhUomUO8Ab9i-14" value="" style="edgeStyle=orthogonalEdgeStyle;rounded=0;orthogonalLoop=1;jettySize=auto;html=1;entryX=0;entryY=0.5;entryDx=0;entryDy=0;fontSize=14;" edge="1" parent="1" source="OEgcK3_PQhUomUO8Ab9i-11" target="OEgcK3_PQhUomUO8Ab9i-7">
          <mxGeometry relative="1" as="geometry">
            <mxPoint x="325" y="730" as="targetPoint" />
            <Array as="points">
              <mxPoint x="240" y="730" />
              <mxPoint x="240" y="520" />
            </Array>
          </mxGeometry>
        </mxCell>
        <mxCell id="OEgcK3_PQhUomUO8Ab9i-15" value="True" style="edgeLabel;html=1;align=center;verticalAlign=middle;resizable=0;points=[];fontSize=14;" vertex="1" connectable="0" parent="OEgcK3_PQhUomUO8Ab9i-14">
          <mxGeometry x="-0.7437" relative="1" as="geometry">
            <mxPoint as="offset" />
          </mxGeometry>
        </mxCell>
        <mxCell id="OEgcK3_PQhUomUO8Ab9i-20" value="" style="edgeStyle=orthogonalEdgeStyle;rounded=0;orthogonalLoop=1;jettySize=auto;html=1;fontSize=14;" edge="1" parent="1" source="OEgcK3_PQhUomUO8Ab9i-11" target="OEgcK3_PQhUomUO8Ab9i-19">
          <mxGeometry relative="1" as="geometry" />
        </mxCell>
        <mxCell id="OEgcK3_PQhUomUO8Ab9i-22" value="False" style="edgeLabel;html=1;align=center;verticalAlign=middle;resizable=0;points=[];fontSize=14;" vertex="1" connectable="0" parent="OEgcK3_PQhUomUO8Ab9i-20">
          <mxGeometry x="-0.184" y="2" relative="1" as="geometry">
            <mxPoint as="offset" />
          </mxGeometry>
        </mxCell>
        <mxCell id="OEgcK3_PQhUomUO8Ab9i-11" value="i &amp;lt; = 8" style="rhombus;whiteSpace=wrap;html=1;strokeWidth=2;fontSize=14;" vertex="1" parent="1">
          <mxGeometry x="385" y="690" width="80" height="80" as="geometry" />
        </mxCell>
        <mxCell id="OEgcK3_PQhUomUO8Ab9i-21" value="" style="edgeStyle=orthogonalEdgeStyle;rounded=0;orthogonalLoop=1;jettySize=auto;html=1;fontSize=14;" edge="1" parent="1" source="OEgcK3_PQhUomUO8Ab9i-19" target="OEgcK3_PQhUomUO8Ab9i-4">
          <mxGeometry relative="1" as="geometry" />
        </mxCell>
        <mxCell id="OEgcK3_PQhUomUO8Ab9i-19" value="" style="ellipse;whiteSpace=wrap;html=1;strokeWidth=2;fontSize=14;" vertex="1" parent="1">
          <mxGeometry x="385" y="820" width="80" height="80" as="geometry" />
        </mxCell>
      </root>
    </mxGraphModel>
  </diagram>
</mxfile>
